# xmcd
#
# Track frame offsets:
#	150
#	16240
#	32710
#	45121
#	62754
#	84175
#	106394
#	130788
#	151784
#	165221
#	186135
#
# Disc length: 2576 seconds
# Revision: 0
# Processed by: cddbd v1.5.2PL0 Copyright (c) Steve Scherf et al.
# Submitted via: dBpowerAMP V12.0
#
DISCID=6f0a0e0b
DTITLE=Jean-Philippe Guy - Like A Wheel Within A Wheel
DYEAR=2013
DGENRE=Blues
TTITLE0=I Ain't Got Nothing But The Blues
TTITLE1=If It's Magic
TTITLE2=Two Little Fishes And Five Loaves Of Bread
TTITLE3=Mon Enfance
TTITLE4=Peace In The Valley
TTITLE5=September Song
TTITLE6=The Windmills Of Your Mind
TTITLE7=You Don't Know What Love Is
TTITLE8=You Gotta Move
TTITLE9=Down To You
TTITLE10=Nobody Knows The Trouble I've Seen
EXTD=
EXTT0=
EXTT1=
EXTT2=
EXTT3=
EXTT4=
EXTT5=
EXTT6=
EXTT7=
EXTT8=
EXTT9=
EXTT10=
PLAYORDER=
